<svg xmlns="http://www.w3.org/2000/svg" width="802" height="626" viewBox="0 0 802 626" font-family="system-ui, -apple-system, &quot;Segoe UI&quot;, sans-serif">
<title>Speedup of the AIR kernels over NumPy</title>
<rect width="802" height="626" rx="8" fill="#1a1a19"/>
<text x="24" y="32" font-size="16" font-weight="600" fill="#ffffff">Speedup over NumPy, same data types</text>
<text x="24" y="52" font-size="12" fill="#c3c2b7">Ryzen 7 8845HS (8 cores, 16 threads). Right of 1x: faster than NumPy; log scale.</text>
<rect x="24" y="67" width="10" height="10" rx="2" fill="#3987e5"/>
<text x="40" y="76" font-size="12" fill="#c3c2b7">Cranelift (128-bit vectors)</text>
<rect x="247" y="67" width="10" height="10" rx="2" fill="#d95926"/>
<text x="263" y="76" font-size="12" fill="#c3c2b7">LLVM (AVX-512)</text>
<line x1="250.0" y1="96" x2="250.0" y2="580" stroke="#2c2c2a" stroke-width="1"/>
<text x="250.0" y="598" font-size="11" text-anchor="middle" fill="#898781">0.1x</text>
<line x1="326.7" y1="96" x2="326.7" y2="580" stroke="#2c2c2a" stroke-width="1"/>
<text x="326.7" y="598" font-size="11" text-anchor="middle" fill="#898781">0.25x</text>
<line x1="384.7" y1="96" x2="384.7" y2="580" stroke="#2c2c2a" stroke-width="1"/>
<text x="384.7" y="598" font-size="11" text-anchor="middle" fill="#898781">0.5x</text>
<line x1="442.7" y1="96" x2="442.7" y2="580" stroke="#383835" stroke-width="1"/>
<text x="442.7" y="598" font-size="11" text-anchor="middle" fill="#898781">1x</text>
<line x1="500.7" y1="96" x2="500.7" y2="580" stroke="#2c2c2a" stroke-width="1"/>
<text x="500.7" y="598" font-size="11" text-anchor="middle" fill="#898781">2x</text>
<line x1="577.3" y1="96" x2="577.3" y2="580" stroke="#2c2c2a" stroke-width="1"/>
<text x="577.3" y="598" font-size="11" text-anchor="middle" fill="#898781">5x</text>
<line x1="635.3" y1="96" x2="635.3" y2="580" stroke="#2c2c2a" stroke-width="1"/>
<text x="635.3" y="598" font-size="11" text-anchor="middle" fill="#898781">10x</text>
<line x1="712.0" y1="96" x2="712.0" y2="580" stroke="#2c2c2a" stroke-width="1"/>
<text x="712.0" y="598" font-size="11" text-anchor="middle" fill="#898781">25x</text>
<line x1="770.0" y1="96" x2="770.0" y2="580" stroke="#2c2c2a" stroke-width="1"/>
<text x="770.0" y="598" font-size="11" text-anchor="middle" fill="#898781">50x</text>
<text x="434.7" y="616" font-size="11" text-anchor="end" fill="#898781">← slower than NumPy</text>
<text x="450.7" y="616" font-size="11" fill="#898781">faster than NumPy →</text>
<text x="238" y="119.0" font-size="12" text-anchor="end" fill="#ffffff">Q8_0 GEMV 4096x4096, all cores</text>
<path d="M442.7,104.0 H660.6 Q664.6,104.0 664.6,108.0 V110.0 Q664.6,114.0 660.6,114.0 H442.7 Z" fill="#3987e5"><title>Q8_0 GEMV 4096x4096, all cores, Cranelift (128-bit vectors): 14.20x NumPy</title></path>
<path d="M442.7,116.0 H757.4 Q761.4,116.0 761.4,120.0 V122.0 Q761.4,126.0 757.4,126.0 H442.7 Z" fill="#d95926"><title>Q8_0 GEMV 4096x4096, all cores, LLVM (AVX-512): 45.12x NumPy</title></path>
<text x="238" y="155.0" font-size="12" text-anchor="end" fill="#ffffff">RoPE, 32 heads x 128</text>
<path d="M442.7,140.0 H550.5 Q554.5,140.0 554.5,144.0 V146.0 Q554.5,150.0 550.5,150.0 H442.7 Z" fill="#3987e5"><title>RoPE, 32 heads x 128, Cranelift (128-bit vectors): 3.80x NumPy</title></path>
<path d="M442.7,152.0 H627.6 Q631.6,152.0 631.6,156.0 V158.0 Q631.6,162.0 627.6,162.0 H442.7 Z" fill="#d95926"><title>RoPE, 32 heads x 128, LLVM (AVX-512): 9.56x NumPy</title></path>
<text x="238" y="191.0" font-size="12" text-anchor="end" fill="#ffffff">Cosine similarity, n=1024</text>
<path d="M442.7,176.0 H537.3 Q541.3,176.0 541.3,180.0 V182.0 Q541.3,186.0 537.3,186.0 H442.7 Z" fill="#3987e5"><title>Cosine similarity, n=1024, Cranelift (128-bit vectors): 3.25x NumPy</title></path>
<path d="M442.7,188.0 H560.1 Q564.1,188.0 564.1,192.0 V194.0 Q564.1,198.0 560.1,198.0 H442.7 Z" fill="#d95926"><title>Cosine similarity, n=1024, LLVM (AVX-512): 4.27x NumPy</title></path>
<text x="238" y="227.0" font-size="12" text-anchor="end" fill="#ffffff">Residual add + RMSNorm, n=4096</text>
<path d="M442.7,212.0 H473.7 Q477.7,212.0 477.7,216.0 V218.0 Q477.7,222.0 473.7,222.0 H442.7 Z" fill="#3987e5"><title>Residual add + RMSNorm, n=4096, Cranelift (128-bit vectors): 1.52x NumPy</title></path>
<path d="M442.7,224.0 H557.7 Q561.7,224.0 561.7,228.0 V230.0 Q561.7,234.0 557.7,234.0 H442.7 Z" fill="#d95926"><title>Residual add + RMSNorm, n=4096, LLVM (AVX-512): 4.15x NumPy</title></path>
<text x="238" y="263.0" font-size="12" text-anchor="end" fill="#ffffff">RMSNorm, n=4096</text>
<path d="M442.7,248.0 H469.1 Q473.1,248.0 473.1,252.0 V254.0 Q473.1,258.0 469.1,258.0 H442.7 Z" fill="#3987e5"><title>RMSNorm, n=4096, Cranelift (128-bit vectors): 1.44x NumPy</title></path>
<path d="M442.7,260.0 H552.7 Q556.7,260.0 556.7,264.0 V266.0 Q556.7,270.0 552.7,270.0 H442.7 Z" fill="#d95926"><title>RMSNorm, n=4096, LLVM (AVX-512): 3.91x NumPy</title></path>
<text x="238" y="299.0" font-size="12" text-anchor="end" fill="#ffffff">Softmax, n=1000</text>
<path d="M442.7,284.0 H479.1 Q483.1,284.0 483.1,288.0 V290.0 Q483.1,294.0 479.1,294.0 H442.7 Z" fill="#3987e5"><title>Softmax, n=1000, Cranelift (128-bit vectors): 1.62x NumPy</title></path>
<path d="M442.7,296.0 H535.4 Q539.4,296.0 539.4,300.0 V302.0 Q539.4,306.0 535.4,306.0 H442.7 Z" fill="#d95926"><title>Softmax, n=1000, LLVM (AVX-512): 3.18x NumPy</title></path>
<text x="238" y="335.0" font-size="12" text-anchor="end" fill="#ffffff">Euclidean distance, n=1024</text>
<path d="M442.7,320.0 H499.0 Q503.0,320.0 503.0,324.0 V326.0 Q503.0,330.0 499.0,330.0 H442.7 Z" fill="#3987e5"><title>Euclidean distance, n=1024, Cranelift (128-bit vectors): 2.06x NumPy</title></path>
<path d="M442.7,332.0 H518.1 Q522.1,332.0 522.1,336.0 V338.0 Q522.1,342.0 518.1,342.0 H442.7 Z" fill="#d95926"><title>Euclidean distance, n=1024, LLVM (AVX-512): 2.58x NumPy</title></path>
<text x="238" y="371.0" font-size="12" text-anchor="end" fill="#ffffff">GEMM bf16 256³, all cores</text>
<path d="M442.7,356.0 H415.3 Q411.3,356.0 411.3,360.0 V362.0 Q411.3,366.0 415.3,366.0 H442.7 Z" fill="#3987e5"><title>GEMM bf16 256³, all cores, Cranelift (128-bit vectors): 0.69x NumPy</title></path>
<path d="M442.7,368.0 H507.6 Q511.6,368.0 511.6,372.0 V374.0 Q511.6,378.0 507.6,378.0 H442.7 Z" fill="#d95926"><title>GEMM bf16 256³, all cores, LLVM (AVX-512): 2.28x NumPy</title></path>
<text x="238" y="407.0" font-size="12" text-anchor="end" fill="#ffffff">SwiGLU, n=14336</text>
<path d="M442.7,392.0 H424.1 Q420.1,392.0 420.1,396.0 V398.0 Q420.1,402.0 424.1,402.0 H442.7 Z" fill="#3987e5"><title>SwiGLU, n=14336, Cranelift (128-bit vectors): 0.76x NumPy</title></path>
<path d="M442.7,404.0 H505.8 Q509.8,404.0 509.8,408.0 V410.0 Q509.8,414.0 505.8,414.0 H442.7 Z" fill="#d95926"><title>SwiGLU, n=14336, LLVM (AVX-512): 2.23x NumPy</title></path>
<text x="238" y="443.0" font-size="12" text-anchor="end" fill="#ffffff">Greedy argmax, 128256 logits</text>
<path d="M442.7,428.0 H375.1 Q371.1,428.0 371.1,432.0 V434.0 Q371.1,438.0 375.1,438.0 H442.7 Z" fill="#3987e5"><title>Greedy argmax, 128256 logits, Cranelift (128-bit vectors): 0.43x NumPy</title></path>
<path d="M442.7,440.0 H467.3 Q471.3,440.0 471.3,444.0 V446.0 Q471.3,450.0 467.3,450.0 H442.7 Z" fill="#d95926"><title>Greedy argmax, 128256 logits, LLVM (AVX-512): 1.41x NumPy</title></path>
<text x="238" y="479.0" font-size="12" text-anchor="end" fill="#ffffff">Flash attention decode, all cores</text>
<path d="M442.7,464.0 H410.3 Q406.3,464.0 406.3,468.0 V470.0 Q406.3,474.0 410.3,474.0 H442.7 Z" fill="#3987e5"><title>Flash attention decode, all cores, Cranelift (128-bit vectors): 0.65x NumPy</title></path>
<path d="M442.7,476.0 H463.0 Q467.0,476.0 467.0,480.0 V482.0 Q467.0,486.0 463.0,486.0 H442.7 Z" fill="#d95926"><title>Flash attention decode, all cores, LLVM (AVX-512): 1.34x NumPy</title></path>
<text x="238" y="515.0" font-size="12" text-anchor="end" fill="#ffffff">GEMV f32 512x1024, all cores</text>
<path d="M442.7,500.0 H358.3 Q354.3,500.0 354.3,504.0 V506.0 Q354.3,510.0 358.3,510.0 H442.7 Z" fill="#3987e5"><title>GEMV f32 512x1024, all cores, Cranelift (128-bit vectors): 0.35x NumPy</title></path>
<path d="M442.7,512.0 H409.6 Q405.6,512.0 405.6,516.0 V518.0 Q405.6,522.0 409.6,522.0 H442.7 Z" fill="#d95926"><title>GEMV f32 512x1024, all cores, LLVM (AVX-512): 0.64x NumPy</title></path>
<text x="238" y="551.0" font-size="12" text-anchor="end" fill="#ffffff">GEMV f32 512x1024, 1 core</text>
<path d="M442.7,536.0 H288.2 Q284.2,536.0 284.2,540.0 V542.0 Q284.2,546.0 288.2,546.0 H442.7 Z" fill="#3987e5"><title>GEMV f32 512x1024, 1 core, Cranelift (128-bit vectors): 0.15x NumPy</title></path>
<path d="M442.7,548.0 H338.5 Q334.5,548.0 334.5,552.0 V554.0 Q334.5,558.0 338.5,558.0 H442.7 Z" fill="#d95926"><title>GEMV f32 512x1024, 1 core, LLVM (AVX-512): 0.27x NumPy</title></path>
</svg>
