<svg xmlns="http://www.w3.org/2000/svg" width="802" height="830" viewBox="0 0 802 830" font-family="system-ui, -apple-system, &quot;Segoe UI&quot;, sans-serif">
<title>Speedup of the AIR kernels over NumPy</title>
<rect width="802" height="830" rx="8" fill="#fcfcfb"/>
<text x="24" y="32" font-size="16" font-weight="600" fill="#0b0b0b">Speedup over NumPy (computing with the kernels' data types)</text>
<text x="24" y="52" font-size="12" fill="#52514e">Ryzen 7 8845HS (8 cores, 16 threads). Right of 1x: faster than NumPy; log scale.</text>
<rect x="24" y="67" width="10" height="10" rx="2" fill="#8a8a85"/>
<text x="40" y="76" font-size="12" fill="#52514e">PyTorch (eager)</text>
<rect x="166" y="67" width="10" height="10" rx="2" fill="#2a78d6"/>
<text x="182" y="76" font-size="12" fill="#52514e">Cranelift (128-bit vectors)</text>
<rect x="389" y="67" width="10" height="10" rx="2" fill="#eb6834"/>
<text x="405" y="76" font-size="12" fill="#52514e">LLVM (AVX-512)</text>
<line x1="250.0" y1="96" x2="250.0" y2="784" stroke="#e1e0d9" stroke-width="1"/>
<text x="250.0" y="802" font-size="11" text-anchor="middle" fill="#898781">0.1x</text>
<line x1="312.7" y1="96" x2="312.7" y2="784" stroke="#e1e0d9" stroke-width="1"/>
<text x="312.7" y="802" font-size="11" text-anchor="middle" fill="#898781">0.25x</text>
<line x1="360.1" y1="96" x2="360.1" y2="784" stroke="#e1e0d9" stroke-width="1"/>
<text x="360.1" y="802" font-size="11" text-anchor="middle" fill="#898781">0.5x</text>
<line x1="407.5" y1="96" x2="407.5" y2="784" stroke="#c3c2b7" stroke-width="1"/>
<text x="407.5" y="802" font-size="11" text-anchor="middle" fill="#898781">1x</text>
<line x1="454.9" y1="96" x2="454.9" y2="784" stroke="#e1e0d9" stroke-width="1"/>
<text x="454.9" y="802" font-size="11" text-anchor="middle" fill="#898781">2x</text>
<line x1="517.6" y1="96" x2="517.6" y2="784" stroke="#e1e0d9" stroke-width="1"/>
<text x="517.6" y="802" font-size="11" text-anchor="middle" fill="#898781">5x</text>
<line x1="565.1" y1="96" x2="565.1" y2="784" stroke="#e1e0d9" stroke-width="1"/>
<text x="565.1" y="802" font-size="11" text-anchor="middle" fill="#898781">10x</text>
<line x1="627.7" y1="96" x2="627.7" y2="784" stroke="#e1e0d9" stroke-width="1"/>
<text x="627.7" y="802" font-size="11" text-anchor="middle" fill="#898781">25x</text>
<line x1="675.2" y1="96" x2="675.2" y2="784" stroke="#e1e0d9" stroke-width="1"/>
<text x="675.2" y="802" font-size="11" text-anchor="middle" fill="#898781">50x</text>
<line x1="722.6" y1="96" x2="722.6" y2="784" stroke="#e1e0d9" stroke-width="1"/>
<text x="722.6" y="802" font-size="11" text-anchor="middle" fill="#898781">100x</text>
<line x1="770.0" y1="96" x2="770.0" y2="784" stroke="#e1e0d9" stroke-width="1"/>
<text x="770.0" y="802" font-size="11" text-anchor="middle" fill="#898781">200x</text>
<text x="399.5" y="820" font-size="11" text-anchor="end" fill="#898781">← slower than NumPy</text>
<text x="415.5" y="820" font-size="11" fill="#898781">faster than NumPy →</text>
<text x="238" y="125.0" font-size="12" text-anchor="end" fill="#0b0b0b">Q4_0 GEMV 4096x4096, all cores</text>
<path d="M407.5,104.0 H669.5 Q673.5,104.0 673.5,108.0 V110.0 Q673.5,114.0 669.5,114.0 H407.5 Z" fill="#8a8a85"><title>Q4_0 GEMV 4096x4096, all cores, PyTorch (eager): 48.77x NumPy</title></path>
<path d="M407.5,116.0 H626.3 Q630.3,116.0 630.3,120.0 V122.0 Q630.3,126.0 626.3,126.0 H407.5 Z" fill="#2a78d6"><title>Q4_0 GEMV 4096x4096, all cores, Cranelift (128-bit vectors): 25.94x NumPy</title></path>
<path d="M407.5,128.0 H723.3 Q727.3,128.0 727.3,132.0 V134.0 Q727.3,138.0 723.3,138.0 H407.5 Z" fill="#eb6834"><title>Q4_0 GEMV 4096x4096, all cores, LLVM (AVX-512): 107.07x NumPy</title></path>
<text x="238" y="173.0" font-size="12" text-anchor="end" fill="#0b0b0b">Q8_0 GEMV 4096x4096, all cores</text>
<path d="M407.5,152.0 H657.6 Q661.6,152.0 661.6,156.0 V158.0 Q661.6,162.0 657.6,162.0 H407.5 Z" fill="#8a8a85"><title>Q8_0 GEMV 4096x4096, all cores, PyTorch (eager): 40.98x NumPy</title></path>
<path d="M407.5,164.0 H628.8 Q632.8,164.0 632.8,168.0 V170.0 Q632.8,174.0 628.8,174.0 H407.5 Z" fill="#2a78d6"><title>Q8_0 GEMV 4096x4096, all cores, Cranelift (128-bit vectors): 26.91x NumPy</title></path>
<path d="M407.5,176.0 H702.7 Q706.7,176.0 706.7,180.0 V182.0 Q706.7,186.0 702.7,186.0 H407.5 Z" fill="#eb6834"><title>Q8_0 GEMV 4096x4096, all cores, LLVM (AVX-512): 79.34x NumPy</title></path>
<text x="238" y="221.0" font-size="12" text-anchor="end" fill="#0b0b0b">RoPE, 32 heads x 128</text>
<path d="M407.5,200.0 H393.0 Q389.0,200.0 389.0,204.0 V206.0 Q389.0,210.0 393.0,210.0 H407.5 Z" fill="#8a8a85"><title>RoPE, 32 heads x 128, PyTorch (eager): 0.76x NumPy</title></path>
<path d="M407.5,212.0 H496.3 Q500.3,212.0 500.3,216.0 V218.0 Q500.3,222.0 496.3,222.0 H407.5 Z" fill="#2a78d6"><title>RoPE, 32 heads x 128, Cranelift (128-bit vectors): 3.88x NumPy</title></path>
<path d="M407.5,224.0 H560.7 Q564.7,224.0 564.7,228.0 V230.0 Q564.7,234.0 560.7,234.0 H407.5 Z" fill="#eb6834"><title>RoPE, 32 heads x 128, LLVM (AVX-512): 9.95x NumPy</title></path>
<text x="238" y="269.0" font-size="12" text-anchor="end" fill="#0b0b0b">Residual add + RMSNorm, n=4096</text>
<path d="M407.5,248.0 H388.3 Q384.3,248.0 384.3,252.0 V254.0 Q384.3,258.0 388.3,258.0 H407.5 Z" fill="#8a8a85"><title>Residual add + RMSNorm, n=4096, PyTorch (eager): 0.71x NumPy</title></path>
<path d="M407.5,260.0 H432.6 Q436.6,260.0 436.6,264.0 V266.0 Q436.6,270.0 432.6,270.0 H407.5 Z" fill="#2a78d6"><title>Residual add + RMSNorm, n=4096, Cranelift (128-bit vectors): 1.53x NumPy</title></path>
<path d="M407.5,272.0 H517.3 Q521.3,272.0 521.3,276.0 V278.0 Q521.3,282.0 517.3,282.0 H407.5 Z" fill="#eb6834"><title>Residual add + RMSNorm, n=4096, LLVM (AVX-512): 5.27x NumPy</title></path>
<text x="238" y="317.0" font-size="12" text-anchor="end" fill="#0b0b0b">RMSNorm, n=4096</text>
<path d="M407.5,296.0 H393.0 Q389.0,296.0 389.0,300.0 V302.0 Q389.0,306.0 393.0,306.0 H407.5 Z" fill="#8a8a85"><title>RMSNorm, n=4096, PyTorch (eager): 0.76x NumPy</title></path>
<path d="M407.5,308.0 H430.7 Q434.7,308.0 434.7,312.0 V314.0 Q434.7,318.0 430.7,318.0 H407.5 Z" fill="#2a78d6"><title>RMSNorm, n=4096, Cranelift (128-bit vectors): 1.49x NumPy</title></path>
<path d="M407.5,320.0 H515.0 Q519.0,320.0 519.0,324.0 V326.0 Q519.0,330.0 515.0,330.0 H407.5 Z" fill="#eb6834"><title>RMSNorm, n=4096, LLVM (AVX-512): 5.10x NumPy</title></path>
<text x="238" y="365.0" font-size="12" text-anchor="end" fill="#0b0b0b">Cosine similarity, n=1024</text>
<path d="M407.5,344.0 H347.3 Q343.3,344.0 343.3,348.0 V350.0 Q343.3,354.0 347.3,354.0 H407.5 Z" fill="#8a8a85"><title>Cosine similarity, n=1024, PyTorch (eager): 0.39x NumPy</title></path>
<path d="M407.5,356.0 H486.1 Q490.1,356.0 490.1,360.0 V362.0 Q490.1,366.0 486.1,366.0 H407.5 Z" fill="#2a78d6"><title>Cosine similarity, n=1024, Cranelift (128-bit vectors): 3.34x NumPy</title></path>
<path d="M407.5,368.0 H507.0 Q511.0,368.0 511.0,372.0 V374.0 Q511.0,378.0 507.0,378.0 H407.5 Z" fill="#eb6834"><title>Cosine similarity, n=1024, LLVM (AVX-512): 4.54x NumPy</title></path>
<text x="238" y="413.0" font-size="12" text-anchor="end" fill="#0b0b0b">Softmax, n=1000</text>
<path d="M407.5,392.0 H459.4 Q463.4,392.0 463.4,396.0 V398.0 Q463.4,402.0 459.4,402.0 H407.5 Z" fill="#8a8a85"><title>Softmax, n=1000, PyTorch (eager): 2.26x NumPy</title></path>
<path d="M407.5,404.0 H435.2 Q439.2,404.0 439.2,408.0 V410.0 Q439.2,414.0 435.2,414.0 H407.5 Z" fill="#2a78d6"><title>Softmax, n=1000, Cranelift (128-bit vectors): 1.59x NumPy</title></path>
<path d="M407.5,416.0 H488.4 Q492.4,416.0 492.4,420.0 V422.0 Q492.4,426.0 488.4,426.0 H407.5 Z" fill="#eb6834"><title>Softmax, n=1000, LLVM (AVX-512): 3.46x NumPy</title></path>
<text x="238" y="461.0" font-size="12" text-anchor="end" fill="#0b0b0b">Euclidean distance, n=1024</text>
<path d="M407.5,440.0 H396.7 Q392.7,440.0 392.7,444.0 V446.0 Q392.7,450.0 396.7,450.0 H407.5 Z" fill="#8a8a85"><title>Euclidean distance, n=1024, PyTorch (eager): 0.81x NumPy</title></path>
<path d="M407.5,452.0 H457.1 Q461.1,452.0 461.1,456.0 V458.0 Q461.1,462.0 457.1,462.0 H407.5 Z" fill="#2a78d6"><title>Euclidean distance, n=1024, Cranelift (128-bit vectors): 2.19x NumPy</title></path>
<path d="M407.5,464.0 H474.8 Q478.8,464.0 478.8,468.0 V470.0 Q478.8,474.0 474.8,474.0 H407.5 Z" fill="#eb6834"><title>Euclidean distance, n=1024, LLVM (AVX-512): 2.83x NumPy</title></path>
<text x="238" y="509.0" font-size="12" text-anchor="end" fill="#0b0b0b">GEMM bf16 256³, all cores</text>
<path d="M407.5,488.0 H503.7 Q507.7,488.0 507.7,492.0 V494.0 Q507.7,498.0 503.7,498.0 H407.5 Z" fill="#8a8a85"><title>GEMM bf16 256³, all cores, PyTorch (eager): 4.33x NumPy</title></path>
<path d="M407.5,500.0 H404.1 Q400.7,500.0 400.7,503.4 V506.6 Q400.7,510.0 404.1,510.0 H407.5 Z" fill="#2a78d6"><title>GEMM bf16 256³, all cores, Cranelift (128-bit vectors): 0.91x NumPy</title></path>
<path d="M407.5,512.0 H465.8 Q469.8,512.0 469.8,516.0 V518.0 Q469.8,522.0 465.8,522.0 H407.5 Z" fill="#eb6834"><title>GEMM bf16 256³, all cores, LLVM (AVX-512): 2.48x NumPy</title></path>
<text x="238" y="557.0" font-size="12" text-anchor="end" fill="#0b0b0b">SwiGLU, n=14336</text>
<path d="M407.5,536.0 H426.8 Q430.8,536.0 430.8,540.0 V542.0 Q430.8,546.0 426.8,546.0 H407.5 Z" fill="#8a8a85"><title>SwiGLU, n=14336, PyTorch (eager): 1.41x NumPy</title></path>
<path d="M407.5,548.0 H391.3 Q387.3,548.0 387.3,552.0 V554.0 Q387.3,558.0 391.3,558.0 H407.5 Z" fill="#2a78d6"><title>SwiGLU, n=14336, Cranelift (128-bit vectors): 0.74x NumPy</title></path>
<path d="M407.5,560.0 H461.5 Q465.5,560.0 465.5,564.0 V566.0 Q465.5,570.0 461.5,570.0 H407.5 Z" fill="#eb6834"><title>SwiGLU, n=14336, LLVM (AVX-512): 2.33x NumPy</title></path>
<text x="238" y="605.0" font-size="12" text-anchor="end" fill="#0b0b0b">Greedy argmax, 128256 logits</text>
<path d="M407.5,584.0 H267.0 Q263.0,584.0 263.0,588.0 V590.0 Q263.0,594.0 267.0,594.0 H407.5 Z" fill="#8a8a85"><title>Greedy argmax, 128256 logits, PyTorch (eager): 0.12x NumPy</title></path>
<path d="M407.5,596.0 H346.0 Q342.0,596.0 342.0,600.0 V602.0 Q342.0,606.0 346.0,606.0 H407.5 Z" fill="#2a78d6"><title>Greedy argmax, 128256 logits, Cranelift (128-bit vectors): 0.38x NumPy</title></path>
<path d="M407.5,608.0 H422.0 Q426.0,608.0 426.0,612.0 V614.0 Q426.0,618.0 422.0,618.0 H407.5 Z" fill="#eb6834"><title>Greedy argmax, 128256 logits, LLVM (AVX-512): 1.31x NumPy</title></path>
<text x="238" y="653.0" font-size="12" text-anchor="end" fill="#0b0b0b">Flash attention decode, all cores</text>
<path d="M407.5,632.0 H422.6 Q426.6,632.0 426.6,636.0 V638.0 Q426.6,642.0 422.6,642.0 H407.5 Z" fill="#8a8a85"><title>Flash attention decode, all cores, PyTorch (eager): 1.32x NumPy</title></path>
<path d="M407.5,644.0 H382.3 Q378.3,644.0 378.3,648.0 V650.0 Q378.3,654.0 382.3,654.0 H407.5 Z" fill="#2a78d6"><title>Flash attention decode, all cores, Cranelift (128-bit vectors): 0.65x NumPy</title></path>
<path d="M407.5,656.0 H421.0 Q425.0,656.0 425.0,660.0 V662.0 Q425.0,666.0 421.0,666.0 H407.5 Z" fill="#eb6834"><title>Flash attention decode, all cores, LLVM (AVX-512): 1.29x NumPy</title></path>
<text x="238" y="701.0" font-size="12" text-anchor="end" fill="#0b0b0b">GEMV f32 512x1024, all cores</text>
<path d="M407.5,680.0 H300.0 Q296.0,680.0 296.0,684.0 V686.0 Q296.0,690.0 300.0,690.0 H407.5 Z" fill="#8a8a85"><title>GEMV f32 512x1024, all cores, PyTorch (eager): 0.20x NumPy</title></path>
<path d="M407.5,692.0 H347.9 Q343.9,692.0 343.9,696.0 V698.0 Q343.9,702.0 347.9,702.0 H407.5 Z" fill="#2a78d6"><title>GEMV f32 512x1024, all cores, Cranelift (128-bit vectors): 0.39x NumPy</title></path>
<path d="M407.5,704.0 H371.4 Q367.4,704.0 367.4,708.0 V710.0 Q367.4,714.0 371.4,714.0 H407.5 Z" fill="#eb6834"><title>GEMV f32 512x1024, all cores, LLVM (AVX-512): 0.56x NumPy</title></path>
<text x="238" y="749.0" font-size="12" text-anchor="end" fill="#0b0b0b">GEMV f32 512x1024, 1 core</text>
<path d="M407.5,728.0 H308.0 Q304.0,728.0 304.0,732.0 V734.0 Q304.0,738.0 308.0,738.0 H407.5 Z" fill="#8a8a85"><title>GEMV f32 512x1024, 1 core, PyTorch (eager): 0.22x NumPy</title></path>
<path d="M407.5,740.0 H290.4 Q286.4,740.0 286.4,744.0 V746.0 Q286.4,750.0 290.4,750.0 H407.5 Z" fill="#2a78d6"><title>GEMV f32 512x1024, 1 core, Cranelift (128-bit vectors): 0.17x NumPy</title></path>
<path d="M407.5,752.0 H327.4 Q323.4,752.0 323.4,756.0 V758.0 Q323.4,762.0 327.4,762.0 H407.5 Z" fill="#eb6834"><title>GEMV f32 512x1024, 1 core, LLVM (AVX-512): 0.29x NumPy</title></path>
</svg>
